<svg height="1838" width="720" xmlns="http://www.w3.org/2000/svg">
<rect height="1838" fill="#555" width="720"></rect>
<text fill="#7f7" font-family="Courier New" font-size="12" xml:space="preserve">
<tspan x="10" y="26">34 megabytes installed</tspan>
<tspan x="10" y="42"></tspan>
<tspan x="10" y="58">node_modules</tspan>
<tspan x="10" y="74">└─┬ gulp-responsive@2.7.0 </tspan>
<tspan x="10" y="90">  ├── async@2.3.0 </tspan>
<tspan x="10" y="106">  ├─┬ gulp-util@3.0.8 </tspan>
<tspan x="10" y="122">  │ ├── array-differ@1.0.0 </tspan>
<tspan x="10" y="138">  │ ├── array-uniq@1.0.3 </tspan>
<tspan x="10" y="154">  │ ├── beeper@1.1.1 </tspan>
<tspan x="10" y="170">  │ ├─┬ chalk@1.1.3 </tspan>
<tspan x="10" y="186">  │ │ ├── ansi-styles@2.2.1 </tspan>
<tspan x="10" y="202">  │ │ ├── escape-string-regexp@1.0.5 </tspan>
<tspan x="10" y="218">  │ │ ├─┬ has-ansi@2.0.0 </tspan>
<tspan x="10" y="234">  │ │ │ └── ansi-regex@2.1.1 </tspan>
<tspan x="10" y="250">  │ │ ├── strip-ansi@3.0.1 </tspan>
<tspan x="10" y="266">  │ │ └── supports-color@2.0.0 </tspan>
<tspan x="10" y="282">  │ ├── dateformat@2.0.0 </tspan>
<tspan x="10" y="298">  │ ├─┬ fancy-log@1.3.0 </tspan>
<tspan x="10" y="314">  │ │ └── time-stamp@1.0.1 </tspan>
<tspan x="10" y="330">  │ ├─┬ gulplog@1.0.0 </tspan>
<tspan x="10" y="346">  │ │ └── glogg@1.0.0 </tspan>
<tspan x="10" y="362">  │ ├─┬ has-gulplog@0.1.0 </tspan>
<tspan x="10" y="378">  │ │ └── sparkles@1.0.0 </tspan>
<tspan x="10" y="394">  │ ├── lodash._reescape@3.0.0 </tspan>
<tspan x="10" y="410">  │ ├── lodash._reevaluate@3.0.0 </tspan>
<tspan x="10" y="426">  │ ├── lodash._reinterpolate@3.0.0 </tspan>
<tspan x="10" y="442">  │ ├─┬ lodash.template@3.6.2 </tspan>
<tspan x="10" y="458">  │ │ ├── lodash._basecopy@3.0.1 </tspan>
<tspan x="10" y="474">  │ │ ├── lodash._basetostring@3.0.1 </tspan>
<tspan x="10" y="490">  │ │ ├── lodash._basevalues@3.0.0 </tspan>
<tspan x="10" y="506">  │ │ ├── lodash._isiterateecall@3.0.9 </tspan>
<tspan x="10" y="522">  │ │ ├─┬ lodash.escape@3.2.0 </tspan>
<tspan x="10" y="538">  │ │ │ └── lodash._root@3.0.1 </tspan>
<tspan x="10" y="554">  │ │ ├─┬ lodash.keys@3.1.2 </tspan>
<tspan x="10" y="570">  │ │ │ ├── lodash._getnative@3.9.1 </tspan>
<tspan x="10" y="586">  │ │ │ ├── lodash.isarguments@3.1.0 </tspan>
<tspan x="10" y="602">  │ │ │ └── lodash.isarray@3.0.4 </tspan>
<tspan x="10" y="618">  │ │ ├── lodash.restparam@3.6.1 </tspan>
<tspan x="10" y="634">  │ │ └── lodash.templatesettings@3.1.1 </tspan>
<tspan x="10" y="650">  │ ├── minimist@1.2.0 </tspan>
<tspan x="10" y="666">  │ ├─┬ multipipe@0.1.2 </tspan>
<tspan x="10" y="682">  │ │ └─┬ duplexer2@0.0.2 </tspan>
<tspan x="10" y="698">  │ │   └─┬ readable-stream@1.1.14 </tspan>
<tspan x="10" y="714">  │ │     ├── isarray@0.0.1 </tspan>
<tspan x="10" y="730">  │ │     └── string_decoder@0.10.31 </tspan>
<tspan x="10" y="746">  │ ├── object-assign@3.0.0 </tspan>
<tspan x="10" y="762">  │ ├── replace-ext@0.0.1 </tspan>
<tspan x="10" y="778">  │ └─┬ vinyl@0.5.3 </tspan>
<tspan x="10" y="794">  │   ├── clone@1.0.2 </tspan>
<tspan x="10" y="810">  │   └── clone-stats@0.0.1 </tspan>
<tspan x="10" y="826">  ├── lodash@4.17.4 </tspan>
<tspan x="10" y="842">  ├─┬ minimatch@3.0.3 </tspan>
<tspan x="10" y="858">  │ └─┬ brace-expansion@1.1.7 </tspan>
<tspan x="10" y="874">  │   ├── balanced-match@0.4.2 </tspan>
<tspan x="10" y="890">  │   └── concat-map@0.0.1 </tspan>
<tspan x="10" y="906">  ├─┬ plur@2.1.2 </tspan>
<tspan x="10" y="922">  │ └── irregular-plurals@1.2.0 </tspan>
<tspan x="10" y="938">  ├─┬ rename@1.0.4 </tspan>
<tspan x="10" y="954">  │ └─┬ debug@2.6.3 </tspan>
<tspan x="10" y="970">  │   └── ms@0.7.2 </tspan>
<tspan x="10" y="986">  ├─┬ sharp@0.17.3 </tspan>
<tspan x="10" y="1002">  │ ├─┬ caw@2.0.0 </tspan>
<tspan x="10" y="1018">  │ │ ├─┬ get-proxy@1.1.0 </tspan>
<tspan x="10" y="1034">  │ │ │ └─┬ rc@1.2.1 </tspan>
<tspan x="10" y="1050">  │ │ │   ├── deep-extend@0.4.1 </tspan>
<tspan x="10" y="1066">  │ │ │   ├── ini@1.3.4 </tspan>
<tspan x="10" y="1082">  │ │ │   └── strip-json-comments@2.0.1 </tspan>
<tspan x="10" y="1098">  │ │ └── tunnel-agent@0.4.3 </tspan>
<tspan x="10" y="1114">  │ ├─┬ color@1.0.3 </tspan>
<tspan x="10" y="1130">  │ │ ├─┬ color-convert@1.9.0 </tspan>
<tspan x="10" y="1146">  │ │ │ └── color-name@1.1.2 </tspan>
<tspan x="10" y="1162">  │ │ └─┬ color-string@1.5.2 </tspan>
<tspan x="10" y="1178">  │ │   └─┬ simple-swizzle@0.2.2 </tspan>
<tspan x="10" y="1194">  │ │     └── is-arrayish@0.3.1 </tspan>
<tspan x="10" y="1210">  │ ├─┬ got@6.7.1 </tspan>
<tspan x="10" y="1226">  │ │ ├─┬ create-error-class@3.0.2 </tspan>
<tspan x="10" y="1242">  │ │ │ └── capture-stack-trace@1.0.0 </tspan>
<tspan x="10" y="1258">  │ │ ├── duplexer3@0.1.4 </tspan>
<tspan x="10" y="1274">  │ │ ├── get-stream@3.0.0 </tspan>
<tspan x="10" y="1290">  │ │ ├── is-redirect@1.0.0 </tspan>
<tspan x="10" y="1306">  │ │ ├── is-retry-allowed@1.1.0 </tspan>
<tspan x="10" y="1322">  │ │ ├── is-stream@1.1.0 </tspan>
<tspan x="10" y="1338">  │ │ ├── lowercase-keys@1.0.0 </tspan>
<tspan x="10" y="1354">  │ │ ├── safe-buffer@5.0.1 </tspan>
<tspan x="10" y="1370">  │ │ ├── timed-out@4.0.1 </tspan>
<tspan x="10" y="1386">  │ │ ├── unzip-response@2.0.1 </tspan>
<tspan x="10" y="1402">  │ │ └─┬ url-parse-lax@1.0.0 </tspan>
<tspan x="10" y="1418">  │ │   └── prepend-http@1.0.4 </tspan>
<tspan x="10" y="1434">  │ ├── nan@2.6.2 </tspan>
<tspan x="10" y="1450">  │ ├── semver@5.3.0 </tspan>
<tspan x="10" y="1466">  │ └─┬ tar@2.2.1 </tspan>
<tspan x="10" y="1482">  │   ├── block-stream@0.0.9 </tspan>
<tspan x="10" y="1498">  │   ├─┬ fstream@1.0.11 </tspan>
<tspan x="10" y="1514">  │   │ ├── graceful-fs@4.1.11 </tspan>
<tspan x="10" y="1530">  │   │ ├─┬ mkdirp@0.5.1 </tspan>
<tspan x="10" y="1546">  │   │ │ └── minimist@0.0.8 </tspan>
<tspan x="10" y="1562">  │   │ └─┬ rimraf@2.6.1 </tspan>
<tspan x="10" y="1578">  │   │   └─┬ glob@7.1.1 </tspan>
<tspan x="10" y="1594">  │   │     ├── fs.realpath@1.0.0 </tspan>
<tspan x="10" y="1610">  │   │     ├─┬ inflight@1.0.6 </tspan>
<tspan x="10" y="1626">  │   │     │ └── wrappy@1.0.2 </tspan>
<tspan x="10" y="1642">  │   │     ├── once@1.4.0 </tspan>
<tspan x="10" y="1658">  │   │     └── path-is-absolute@1.0.1 </tspan>
<tspan x="10" y="1674">  │   └── inherits@2.0.3 </tspan>
<tspan x="10" y="1690">  └─┬ through2@2.0.3 </tspan>
<tspan x="10" y="1706">    ├─┬ readable-stream@2.2.9 </tspan>
<tspan x="10" y="1722">    │ ├── buffer-shims@1.0.0 </tspan>
<tspan x="10" y="1738">    │ ├── core-util-is@1.0.2 </tspan>
<tspan x="10" y="1754">    │ ├── isarray@1.0.0 </tspan>
<tspan x="10" y="1770">    │ ├── process-nextick-args@1.0.7 </tspan>
<tspan x="10" y="1786">    │ ├── string_decoder@1.0.0 </tspan>
<tspan x="10" y="1802">    │ └── util-deprecate@1.0.2 </tspan>
<tspan x="10" y="1818">    └── xtend@4.0.1</tspan>
</text>
</svg>
